<?xml version="1.0" encoding="utf-8"?>
<!-- Generator: Adobe Illustrator 24.2.1, SVG Export Plug-In . SVG Version: 6.00 Build 0)  -->
<svg version="1.1" id="Wordmark" xmlns="http://www.w3.org/2000/svg" xmlns:xlink="http://www.w3.org/1999/xlink" x="0px" y="0px"
	 viewBox="0 0 442 220" style="enable-background:new 0 0 442 220;" xml:space="preserve">
<style type="text/css">
	.st0{fill:#40180B;}
</style>
<g>
	<path class="st0" d="M30.7,0C-3.9,0-5.4,44.7,7.3,110c12.7,65.3,31.6,110,66.2,110c33.9,0,36.1-44.7,23.3-110
		C84.1,44.7,64.6,0,30.7,0z M66.9,186.5c-6.8,0-13.6-26.4-23.4-76.5c-9.7-50.1-13.2-76.5-6.4-76.5c6.8,0,13.6,26.4,23.4,76.5
		C70.3,160.1,73.7,186.5,66.9,186.5z"/>
	<path class="st0" d="M120.2,2H81.9l42,215.9h38.3c28.2,0,44.5-31.1,29.5-108C176.7,33.2,148.3,2,120.2,2z M154.2,187.2h-2.7
		L121.4,32.8h2.7c8.1,0,20.5,21.6,31.3,77.2C166.3,165.5,162.3,187.2,154.2,187.2z"/>
	<polygon class="st0" points="247.4,187.2 235.3,124.9 257.6,124.9 251.6,94.1 229.3,94.1 217.3,32.8 245.5,32.8 239.5,2 176.8,2 
		218.8,218 281.5,218 275.5,187.2 	"/>
	<path class="st0" d="M434.8,110C422.1,44.7,402.6,0,368.7,0c-34.6,0-36.1,44.7-23.3,110c12.7,65.3,31.6,110,66.2,110
		C445.4,220,447.6,175.3,434.8,110z M405,186.5c-6.8,0-13.6-26.4-23.4-76.5c-9.7-50.1-13.2-76.5-6.4-76.5h0
		c6.8,0,13.6,26.4,23.3,76.5C408.3,160.1,411.7,186.5,405,186.5z"/>
	<polygon class="st0" points="332.4,2 299.2,2 298.5,98.4 279.7,2 246.2,2 288.3,218 321.8,218 303.6,124.4 340.2,218 374.4,218 
		331.1,108.7 	"/>
</g>
</svg>
